<?xml version="1.0" standalone="no"?><!DOCTYPE svg PUBLIC "-//W3C//DTD SVG 1.1//EN" "http://www.w3.org/Graphics/SVG/1.1/DTD/svg11.dtd"><svg t="1571279106803" class="icon" viewBox="0 0 1024 1024" version="1.1" xmlns="http://www.w3.org/2000/svg" p-id="4709" width="32" height="32" xmlns:xlink="http://www.w3.org/1999/xlink"><defs><style type="text/css"></style></defs><path d="M512 950.857143a438.857143 438.857143 0 1 0 0-877.714286 438.857143 438.857143 0 0 0 0 877.714286z m0 48.761905c-269.312 0-487.619048-218.307048-487.619048-487.619048s218.307048-487.619048 487.619048-487.619048 487.619048 218.307048 487.619048 487.619048-218.307048 487.619048-487.619048 487.619048z" p-id="4710" fill="#ed6200"></path><path d="M479.232 513.755429L324.071619 358.595048a24.380952 24.380952 0 1 1 34.523429-34.523429l155.160381 155.160381 155.160381-155.160381a24.380952 24.380952 0 0 1 34.474666 34.523429l-155.160381 155.160381 155.160381 155.160381a24.380952 24.380952 0 0 1-34.474666 34.474666l-155.160381-155.160381-155.160381 155.160381a24.380952 24.380952 0 0 1-34.523429-34.474666l155.160381-155.160381z" p-id="4711" fill="#ed6200"></path></svg>